<svg xmlns="http://www.w3.org/2000/svg" viewBox="0 0 100 100">
  <!-- Miami U: Orange Left, Green Right -->
  <path d="M10,10 L45,10 L45,60 C45,75 35,75 35,60 L35,30 L10,30 L10,60 C10,90 45,90 50,90 C55,90 90,90 90,60 L90,30 L65,30 L65,60 C65,75 55,75 55,60 L55,10 L90,10" fill="none" />
  
  <!-- Left Half (Orange) -->
  <path d="M10,20 L35,20 L35,60 C35,70 42,70 45,70 L45,90 C25,90 10,75 10,60 Z" fill="#F47321" />
  <path d="M45,20 L45,90 L50,90 L50,20 Z" fill="transparent" /> <!-- Spacer -->
  
  <!-- Improved simple U shape -->
  <path d="M15,20 L40,20 L40,60 C40,75 48,78 50,78 L50,98 C30,98 15,80 15,60 Z" fill="#F47321" />
  <path d="M85,20 L60,20 L60,60 C60,75 52,78 50,78 L50,98 C70,98 85,80 85,60 Z" fill="#005030" />
</svg>
